<?xml version="1.0" encoding="utf-8"?>
<!-- Generator: Adobe Illustrator 18.1.0, SVG Export Plug-In . SVG Version: 6.00 Build 0)  -->
<svg version="1.1" id="Layer_1" xmlns="http://www.w3.org/2000/svg" xmlns:xlink="http://www.w3.org/1999/xlink" x="0px" y="0px"
	 viewBox="0 0 928.7 518.2" enable-background="new 0 0 928.7 518.2" xml:space="preserve">
<linearGradient id="SVGID_1_" gradientUnits="userSpaceOnUse" x1="131.6856" y1="406.6416" x2="704.9741" y2="406.6416">
	<stop  offset="5.759730e-03" style="stop-color:#FFF100"/>
	<stop  offset="0.9083" style="stop-color:#93C83D"/>
</linearGradient>
<path fill="url(#SVGID_1_)" d="M160.1,359.9l-23.5,22.5l-4.9,38.2l9.8,24.5L163,454c0,0,535.1-9.8,536.1-7.8
	c1,2-13.7-24.5-10.8-25.5c2.9-1,16.7-35.3,16.7-35.3l-18.6-24.5l-46.1,10.8l-26.4-5.6C613.9,366.1,156.2,357,160.1,359.9z"/>
<linearGradient id="SVGID_2_" gradientUnits="userSpaceOnUse" x1="191.4626" y1="139.4787" x2="611.8781" y2="139.4787">
	<stop  offset="5.759730e-03" style="stop-color:#FFF100"/>
	<stop  offset="0.9083" style="stop-color:#93C83D"/>
</linearGradient>
<path fill="url(#SVGID_2_)" d="M201.3,70.8l-9.8,41.2l34.3,2.9c0,0-14.7,94.1-12.7,97c2,2.9,368.5,2,368.5,2l4.9-40.2l-35.3-4.9
	l9.8-56.8l39.4-6.6l11.5-36.6l-141.1-2l-8.8,27.4l-17.6-23.5c0,0-28.4-5.9-33.3-5.9C406.1,64.9,201.3,70.8,201.3,70.8z"/>
<path fill="#DDD218" d="M244.9,105.4"/>
<g>
	<path fill="#242B4F" d="M450.9,390.6c0.4-1.8,0.3-3.3-0.1-4.4c0-0.1,0-0.2-0.1-0.2c-0.2-0.5-0.5-0.8-0.8-1.2c-0.5-0.6-1-1-1.6-1.4
		c0,0,0,0,0,0c-1.1-0.6-2.4-1-3.9-1.2c-1.5-0.2-3-0.3-4.5-0.3h-10.9l-0.3,1.5l-0.3,1.4l-0.3,1.4l-2.7,12.8h9.8
		c1.5,0,3.1-0.1,4.8-0.2c1.7-0.1,3.3-0.4,4.7-1c1.5-0.5,2.8-1.4,3.9-2.5C449.6,394.3,450.4,392.7,450.9,390.6z"/>
	<polygon fill="#242B4F" points="479.9,413.2 498.4,413.2 494,389.7 	"/>
	<polygon fill="#242B4F" points="494.2,344.2 494.1,344.4 502.1,344.4 502.2,344.4 512.5,344.4 512.6,343.8 521.4,301.8 503,301.8 	
		"/>
	<path fill="#242B4F" d="M594.4,297.7l0.9-4.1l0.3-1.3h46.9h39h9.6h6.8l-0.8,1.3l-2.5,4.1l-2.6,4.1l-2.8,4.6l12.5-4.6l6.2-2.2
		l46.2-16.9L698.9,259l1.5,7.8l0.8,4.1l0.8,4.1l0,0.1h-7.3h-9.6h-39h-46.9l0-0.1l0.9-4.1l0.9-4.1l5-24H649h3.8h5.7h4.9l-5.3,8.6
		l20.7-8.9l8.9-3.8l2-0.9l8.5-3.6L665.2,217l1.8,9.1l0.1,0.5H662h-5.7h-3.7h-60.8h-0.8l0,0l-8.4,40.1l-0.9,4.1l-0.9,4.1l0,0.1h-49
		H527h-18.4h-4.8h-40.6h-7.4h-5.2h-2.2h-16.3h-5.3l0-0.1l-0.8-4.1l-0.8-4.1l-1.4-7.5l-4.5,7.5l-2.5,4.1l-2.5,4.1l0,0.1h-5.3h-14.6
		h-2.2h-5.2h-7.4h-37.1h-6.8h-4.8h-2h-14.3h-2h-4.8H301h-52.8H229h-8.1h-6.2h-0.9c-1.5-0.7-2.9-1.4-4.2-2.2c-1.1-0.7-2.1-1.4-3-2.1
		c-1.2-1-2.2-2.3-2.9-3.6c0-0.1-0.1-0.2-0.1-0.3c-1.1-2.5-1.3-5.4-0.6-8.7c0.7-3.4,2.2-6.4,4.5-8.8l0,0c2.1-2.3,4.6-4.1,7.4-5.5
		c0.3-0.1,0.5-0.2,0.8-0.4c2.3-1,4.7-1.8,7-2.3c2.6-0.6,5.1-0.8,7.5-0.8c4,0,8.1,0.8,12.1,2.3c2.6,1,4.8,2.3,6.6,4l15.2-13.5
		c-3.3-2.8-7-4.8-11.2-6.2c-0.2-0.1-0.4-0.1-0.6-0.2c-5.7-1.8-11.8-2.7-18.2-2.7c-4.9,0-9.9,0.6-14.8,1.8c-0.8,0.2-1.6,0.4-2.5,0.6
		c-0.3,0.1-0.5,0.2-0.8,0.3c-1.4,0.4-2.9,0.9-4.2,1.4c-3.7,1.4-7.1,3.2-10.3,5.3c-4.5,3-8.5,6.8-11.8,11.3
		c-3.2,4.4-5.5,9.7-6.8,15.7c-1.3,6-1.1,10.9,0.6,14.3c1.7,3.7,4.3,6.7,7.6,9c2.5,1.7,5.2,3.1,8.2,4.4c0.7,0.3,1.5,0.6,2.2,0.8
		c0.6,0.2,1.1,0.4,1.7,0.6c0.9,0.3,1.8,0.6,2.7,0.9c2.4,0.8,4.7,1.6,7,2.4c1.3,0.5,2.6,1,3.9,1.4c4.5,1.7,8.2,3.8,11,6.3
		c3.5,3.1,4.7,7.6,3.6,12.9c-0.7,3.2-2.1,6.1-4.3,8.6c-2,2.3-4.4,4.1-7.2,5.6c-2.5,1.3-5.3,2.3-8.2,2.9c-5,1.1-9.8,1.2-14.2,0.4
		c-2.3-0.4-4.5-1.1-6.6-2c-0.4-0.2-0.8-0.4-1.3-0.6c-0.3-0.1-0.6-0.3-0.9-0.4c-3-1.6-5.5-3.6-7.5-6l-11.8,10.5l-4.2,3.8
		c3.8,3.6,8.1,6.3,12.8,8.1c2.9,1.1,5.9,1.9,9.2,2.5c2.2,0.4,4.5,0.7,6.9,0.8c1.5,0.1,3,0.2,4.5,0.2c6.1,0,12.1-0.8,17.9-2.3
		c5.6-1.5,10.8-3.8,15.4-6.9c4.5-3,8.4-6.8,11.7-11.4c3.2-4.6,5.5-10,6.8-16.3c0.7-3.3,1-6.3,0.9-8.9c-0.1-1.5-0.2-2.9-0.6-4.1
		c-0.2-0.8-0.4-1.5-0.7-2.2c-0.3-0.7-0.7-1.3-1-1.9c-0.2-0.4-0.5-0.9-0.8-1.3h6h7.9h35.4h6.8h4.8h2h14.3h2h4.8h6.8h29.7h7.4h5.2h2.2
		h15.3h5.3l-0.8,1.3l-2.5,4.1l-0.6,1h31l-0.2-1l-0.8-4.1l-0.2-1.3h5.3h17h2.2h5.2h7.4h33h4.8h18.4h4.8h49l-0.3,1.3l-0.9,4.1
		l-0.9,4.1l-8.5,40.7l-0.3,1.4h61.3h4h5.6h4.9l-4.7,7.5l-0.4,0.7l1.6-0.7l38.5-16.5l-9-4.7l-2.3-1.2l-5.5-2.9l-16.3-8.5l1.9,9.9
		h-5.4h-5.6h-4h-42.9l5.4-25.8L594.4,297.7z"/>
	<polygon fill="#242B4F" points="454.4,301.8 437.1,301.8 437.8,305.5 390.8,305.5 393,301.8 377.4,301.8 375.1,301.8 347.8,344.4 
		368.1,344.4 384.3,317.6 440,317.6 445.3,344.4 466.3,344.4 456.7,301.8 	"/>
	<polygon fill="#242B4F" points="309,301.8 306.9,301.8 298,344.4 316.4,344.4 325.3,301.8 323.3,301.8 	"/>
	<polygon fill="#242B4F" points="510.3,266.8 528.7,266.8 533.9,242.4 570,242.4 573.2,227.2 482.5,227.2 479.3,242.4 515.5,242.4 	
		"/>
	<path fill="#242B4F" d="M725.1,325.3l114.5-40.8L746,245.4l21.4-9.6L625.8,162l6.2,39.5h-35l7.9-37.8h-44l8.8-41.9h44l13.2-63
		H468.5l-3.4,16.3h-3.3c-1.6-1.5-3.2-2.8-5-4.1c-6.6-4.6-14.5-7.9-23.6-9.7c-7.9-1.6-16.5-2.4-25.5-2.4h-55.4h-19.1H193.9l-13.2,63
		h44l-16.7,79.7h-3l-3,1.2c-5.2,2.1-10.2,4.8-14.9,7.9c-7.7,5.1-14.4,11.5-19.9,19.1c-5.9,8-9.9,17.2-12,27.4
		c-2.5,12-1.7,22.5,2.4,31.2c2,4.2,4.5,8,7.5,11.4l-39.7,36l14.6,16.7c3,3.4,6.2,6.4,9.6,9c-1.1,0.8-2.3,1.6-3.3,2.4
		c-5.8,4.6-10.8,10.2-14.8,16.7c-4.1,6.5-7,13.9-8.6,21.7c-1.7,8.2-1.9,16-0.4,23.1c1.6,7.6,4.7,14.3,9.4,19.8
		c4.6,5.5,10.6,9.7,17.7,12.6c1.6,0.7,3.3,1.2,5,1.7h6.1h27.4h4.2h53.9h28.6h21.5h8.7h18.2h28.1h27.9h28h7.5h34.5h22.2h19.2H506
		h37.5h12.6h19h34.3h1.1h75.3h28.3l-15.6-39.6c1.6-1.3,3.2-2.7,4.7-4.2c5.7-6,9.4-13.2,11.2-21.6c1.5-7.1,1.4-13.6-0.4-19.2
		c-1.9-6.1-5.4-11.3-10.3-15.1c-1.2-0.9-2.4-1.7-3.7-2.5l47.9-20L725.1,325.3z M503.9,180l15.6-74.7h-43.9h-0.1l0.1-0.4l5.7-27.1
		l0.3-1.4l0.3-1.4h57.6h67.3l-6.3,30.2h-44L540.7,180h44l-4.5,21.5l-1.8,8.8h-67.3h-1.5h-1.5h-44.1h-10.6l1.8-8.8l1.5-7.2l3-14.2
		H503.9z M336.8,121.8l9.2-43.8l0.3-1.4l0.3-1.4h2.4h58.8c6.3,0,12.3,0.5,17.9,1.4c1.5,0.2,2.9,0.5,4.3,0.8c0.9,0.2,1.8,0.4,2.7,0.7
		c5.7,1.5,10.7,3.6,14.8,6.5c4.8,3.4,8.2,7.9,10.3,13.6c0.7,1.8,1.1,3.9,1.4,6c0.5,4.5,0.2,9.6-0.9,15.2c-0.2,0.8-0.4,1.7-0.6,2.5
		c-2.4,9.1-6.9,17.1-13.7,23.7c-5.8,5.6-13,9.7-21.5,12.1l17.4,38.6l2.4,5.4l4,8.8h-9.4h-34.9l-0.3-0.7l-3-8.1l-14.4-39.2l-3.7,0
		h-15.4l-8.2,39.2l-1.8,8.8h-36.9l1.8-8.8L336.8,121.8z M224.8,201.5l20.1-96.1h-44l6.3-30.2h56.5h66.1h2.4l-0.3,1.4l-0.3,1.4
		l-5.7,27.5h-2.4h-41.7l-20.1,96.1l-1.8,8.8h-21.5h-1.5h-1.5H223L224.8,201.5z M191.6,442.8c-1.1,0.3-2.3,0.6-3.4,0.8
		c-5.6,1.1-11.1,1.7-16.7,1.7c-1.7,0-3.3-0.1-4.8-0.2c-0.5,0-1-0.1-1.4-0.2c-0.5-0.1-1-0.1-1.4-0.2c-2.9-0.5-5.6-1.2-8.1-2.2
		c-4.6-1.9-8.4-4.5-11.3-8c-2.9-3.5-4.9-7.6-5.9-12.6c-1-4.9-0.9-10.4,0.4-16.5c1.3-6,3.4-11.5,6.5-16.5c3.1-4.9,6.8-9.1,11.1-12.6
		c3-2.4,6.3-4.4,9.8-6c1.6-0.7,3.2-1.4,4.8-2c5.4-1.8,11-2.8,16.9-2.8c6,0,11.5,0.7,16.3,2.2c0.9,0.3,1.8,0.6,2.7,1
		c2.9,1.2,5.4,2.9,7.6,5c0.5,0.5,1.1,1,1.5,1.5l-8.8,7.8l-1.6,1.4l-1.6,1.4l-0.9,0.8l-1.5,1.4c-0.6-0.8-1.2-1.5-1.9-2.1
		c-0.5-0.5-1.1-1-1.7-1.4c-0.7-0.5-1.5-1-2.3-1.4c-0.2-0.1-0.4-0.2-0.6-0.3c-2.6-1.2-6-1.8-10.3-1.8c-3.6,0-6.9,0.6-10,1.8
		c-3.1,1.2-6,2.9-8.5,5.1c-2.5,2.2-4.6,4.8-6.4,7.8c-1.7,3-3,6.2-3.7,9.7c-0.7,3.6-0.9,6.8-0.4,9.8c0.5,3,1.5,5.5,3.1,7.7
		c1.6,2.2,3.7,3.9,6.4,5.1c0.6,0.2,1.1,0.5,1.7,0.7c0.4,0.1,0.9,0.3,1.4,0.4c0.5,0.1,0.9,0.2,1.4,0.3c1.5,0.3,3.1,0.4,4.8,0.4
		c3.6,0,6.8-0.4,9.7-1.2c2.8-0.8,5.1-1.7,6.8-2.5l2.6-12.3h-13.6l3.2-15.4h17.5H213l-8.3,39.5C200.4,440.1,196,441.6,191.6,442.8z
		 M261.5,443.4h-11.9h-29.3h-12.1l12-57.2l0.3-1.4l0.3-1.4l2-9.4l1.3-6.3h7.1h34.3h10l-1.3,6.3l-1.9,9.1h-10h-24.7l0,0.2l-0.3,1.4
		l-0.3,1.4l-2.3,11h24.7h8.1l-3.2,15.4H256h-24.7l-3.2,15.4h24.7h11.9L261.5,443.4z M326.6,443.4h-10.4l-21.8-53.8h-0.2L283,443.4
		h-4.8h-11.9l11.9-57.2l0.3-1.4l0.3-1.4l2-9.4l1.3-6.3h10h12.7l2.5,6.3l3.8,9.4l0.6,1.4l0.6,1.4l13.7,34.1h0.2l7.1-34.1l0.3-1.4
		l0.3-1.4l2-9.4l1.3-6.3h5.3h11.4l-1.3,6.3l-2,9.4l-0.3,1.4l-0.3,1.4l-12,57.2H326.6z M385.8,428h11.3l-3.2,15.4h-11.3h-27.9h-11.4
		l11.9-57.2l0.3-1.4l0.3-1.4l2-9.4l1.3-6.3h11.4h27.9h11.3l-1.3,6.3l-1.9,9.1h-11.3h-22.6l0,0.2l-0.3,1.4l-0.3,1.4l-2.3,11h22.6
		h10.2l-3.2,15.4H389h-22.6l-3.2,15.4H385.8z M440,443.4l-4.9-15.5l-4.6-14.7h-8.2l-6.3,30.2h-5.4h-11.3l11.9-57.2l0.3-1.4l0.3-1.4
		l2-9.4l1.3-6.3h11.3h18c3.8,0,7.4,0.4,10.7,1.1c3.3,0.7,6.1,2,8.3,3.7c0.6,0.4,1.1,0.9,1.5,1.4c1,1.1,1.8,2.4,2.5,3.8
		c0.3,0.6,0.5,1.2,0.7,1.9c0.3,1.1,0.5,2.4,0.6,3.7c0,0.5,0.1,0.9,0.1,1.4c0,0.5-0.1,1-0.1,1.4c-0.1,1.4-0.3,2.9-0.6,4.5
		c-1.1,5.3-3.5,9.9-7,13.6c-3.6,3.7-8.1,6.1-13.7,7.1l5,12.8l-12.3,19.1H440z M509.3,443.4h-5.1l-3.2-16h-29.4l-9.7,16h-2h-0.4h-15
		l9.6-14.8l27.3-42.3l0.9-1.4l0.9-1.4l1.6-2.5l4.4-6.9l4-6.3H506l3.5,15.6l0.3,1.4l0.3,1.4l2.9,12.6l2.9,13l7.1,31.5H509.3z
		 M698.4,390.7c-0.6,2.7-1.4,5.2-2.6,7.5c-1.2,2.2-2.6,4.3-4.4,6.1c-3.6,3.7-8.1,6.1-13.7,7.1l10,25.4l1,2.4l1,2.4l0.7,1.7h-1h-1.5
		h-1.5h-16l-9.5-30.2h-8.2l-6.3,30.2h-8h-7.6l4.7-22.5l6.4-30.6l0.8-4l0.3-1.4l0.3-1.4l0.5-2.4l29.1-13.3h1.9c0.1,0,0.1,0,0.2,0
		c3.8,0,7.3,0.4,10.5,1.1c3.3,0.7,6.1,2,8.3,3.7c2.2,1.8,3.8,4.1,4.7,7.1c0.3,1.1,0.5,2.4,0.6,3.7c0,0.5,0.1,0.9,0.1,1.4
		C699,386.6,698.8,388.6,698.4,390.7z M671.6,351.4l-42.1,17.6l-2.3,1c0.6,0.3,1.3,0.7,1.9,1.1c2.5,1.5,4.8,3.4,6.6,5.6
		c1.6,1.9,2.9,4,3.9,6.3l-0.1,0.5l-0.3,1.4l-0.3,1.4l-8.8,42c-2,2.3-4.2,4.4-6.5,6.3c-2.8,2.2-5.8,4-9,5.6c-1.8,0.9-3.7,1.7-5.6,2.4
		c-5.4,1.8-11,2.8-16.9,2.8c-5.9,0-11.2-0.9-15.8-2.8c-4.6-1.9-8.4-4.5-11.3-8c-2.9-3.5-4.9-7.6-5.9-12.6c-1-4.9-0.9-10.4,0.4-16.5
		c1.3-6,3.4-11.5,6.5-16.5c0.6-1,1.3-1.9,2-2.9c0.3-0.5,0.7-1,1.1-1.4c0.4-0.5,0.8-1,1.2-1.4c0.2-0.3,0.5-0.6,0.7-0.9h-15.4
		l-0.2,0.9l-0.3,1.4l-0.3,1.4l-12,57.2h-2.9H526l6.6-31.7l5.3-25.5l0.3-1.4l0.3-1.4l0.2-0.9h-12.7h-8.9l3.1-14.7h2.5h57.4l-1.6,7.8
		c4-3,8.4-5.3,13.2-7c5.4-1.8,11-2.8,16.9-2.8c1.8,0,3.6,0.1,5.3,0.3l1-1.6l1.7-2.7l2.5-4.1h-76.9h-21.8h-40h-9.9h-42h-28h-27.9
		h-28.1h-22h-4.2h-24.1h-26.7h-47.1h-8.2h-2.7h-24.7h-4.5c-3-0.6-5.9-1.5-8.6-2.5c-1.7-0.6-3.3-1.4-4.9-2.2
		c-5.3-2.8-10.1-6.6-14.3-11.3l-4-4.6l42.8-38.8c-2.9-1.3-5.6-2.8-8.1-4.5c-4.6-3.1-8.2-7.3-10.6-12.4c-2.6-5.4-3-12.4-1.2-20.8
		c1.7-7.9,4.8-15,9.2-21.1c4.4-6,9.7-11.1,15.8-15.1c2.5-1.7,5.2-3.1,8-4.5c1.3-0.6,2.6-1.3,4-1.9h5.7h50h11h1.8h23.2h70.3h17h3.4
		h25.7h18.8h15.2h17.2h110.1h16h57.6l-4.2-26.4l82.9,43.1l-24.8,11.1l2.3,1.2l86.9,36.4l-101.3,36.1l-7.9,3.5l24.4,12.7L671.6,351.4
		z"/>
	<polygon fill="#242B4F" points="414.1,266.8 426.7,245.8 430.6,266.8 446.5,266.8 448.8,266.8 439.8,227.2 423,227.2 397.6,266.8 
		399.8,266.8 	"/>
	<polygon fill="#242B4F" points="314.3,266.8 316.3,266.8 330.6,266.8 332.7,266.8 337.8,242.4 373.9,242.4 377.1,227.2 
		286.4,227.2 283.2,242.4 319.4,242.4 	"/>
	<path fill="#242B4F" d="M680.9,386c-0.2-0.5-0.5-0.8-0.8-1.2c-0.5-0.6-1-1-1.6-1.4c0,0,0,0,0,0c-1.1-0.6-2.4-1-3.9-1.2
		c-1.5-0.2-3-0.3-4.5-0.3h-10.9l-0.3,1.5l-0.3,1.4l-0.3,1.4l-2.7,12.8h9.8c1.5,0,3.1-0.1,4.8-0.2c1.7-0.1,3.3-0.4,4.7-1
		c1.5-0.5,2.8-1.4,3.9-2.5c1.1-1.1,1.9-2.7,2.3-4.8c0.4-1.8,0.3-3.3-0.1-4.4C680.9,386.2,680.9,386.1,680.9,386z"/>
	<path fill="#242B4F" d="M624,395c-0.5-2.6-1.5-4.9-2.9-6.9c-0.5-0.7-1.1-1.3-1.7-1.9c-0.5-0.5-1.1-1-1.7-1.4
		c-0.7-0.5-1.5-1-2.3-1.4c-0.2-0.1-0.4-0.2-0.7-0.3c-2.6-1.2-5.7-1.8-9.3-1.8c-3.6,0-6.9,0.6-10,1.8c-0.3,0.1-0.5,0.2-0.8,0.3
		c-1,0.4-2,0.9-2.9,1.4c-0.8,0.4-1.6,0.9-2.3,1.4c-0.8,0.6-1.7,1.2-2.4,1.9c-2.5,2.2-4.6,4.8-6.4,7.8c-1.7,3-3,6.2-3.7,9.7
		c-0.7,3.6-0.9,6.8-0.4,9.8c0.5,3,1.5,5.5,3.1,7.7c1.6,2.2,3.7,3.9,6.4,5.1c2.6,1.2,5.7,1.8,9.3,1.8c3.6,0,6.9-0.6,10-1.8
		c3.1-1.2,6-2.9,8.5-5.1c2.3-2,4.2-4.3,5.8-7c0.2-0.2,0.4-0.5,0.5-0.7c1.7-2.9,3-6.2,3.7-9.8c0.7-3.5,0.9-6.7,0.4-9.7
		C624.1,395.5,624,395.3,624,395z"/>
	<path fill="#242B4F" d="M399.5,133c3.3-0.2,6.4-0.8,9.2-1.7c2.7-0.9,5.1-2.3,7.2-4.3c2-1.8,3.3-4.5,4.1-8c0.7-3.2,0.5-5.8-0.5-7.7
		c-1-1.9-2.6-3.4-4.6-4.4c-2.1-1.1-4.7-1.8-7.6-2.2c-3-0.4-6.1-0.6-9.1-0.6h-20.8l-6.1,29.1h18.6C392.8,133.3,396.1,133.2,399.5,133
		z"/>
</g>
</svg>
